<svg width="54" height="51" viewBox="0 0 54 51" fill="none" xmlns="http://www.w3.org/2000/svg">
<path d="M53.2777 10.9568V39.9966C53.2777 45.6983 48.394 50.3204 42.3695 50.3204H11.686C5.66147 50.3204 0.777729 45.6983 0.777729 39.9966V10.9568C0.777729 5.25505 5.66147 0.632935 11.686 0.632935H42.3695C48.394 0.632935 53.2777 5.25505 53.2777 10.9568ZM21.4666 39.555C34.4157 43.7835 46.3708 32.4688 41.9029 20.2135C40.3975 16.0829 36.9535 12.8231 32.5892 11.3984C19.6398 7.16989 7.6847 18.4845 12.1525 30.7402C13.6579 34.8707 17.1019 38.1303 21.4666 39.555ZM8.8107 10.4522C9.01674 11.4733 9.90947 12.0674 10.833 12.0674C11.395 12.0674 11.9679 11.8478 12.4066 11.3714C12.4454 11.3292 12.4816 11.284 12.5136 11.237C12.9664 10.582 12.9805 9.80377 12.5957 9.17267C12.3233 8.72596 11.8837 8.40692 11.3572 8.27348C10.8314 8.13943 10.2815 8.20828 9.81014 8.46636C9.14299 8.83028 8.74437 9.51112 8.78988 10.2917C8.79308 10.3451 8.79981 10.3994 8.8107 10.4522Z" fill="#F1C305"/>
</svg>
