<svg width="62" height="51" viewBox="0 0 62 51" fill="none" xmlns="http://www.w3.org/2000/svg">
<path d="M62.4688 11.5124C62.4688 11.5124 61.8527 6.58822 59.9548 4.42603C57.5517 1.58031 54.8651 1.56636 53.6328 1.39896C44.809 0.673584 31.561 0.673584 31.561 0.673584H31.5363C31.5363 0.673584 18.2884 0.673584 9.4646 1.39896C8.23223 1.56636 5.54567 1.58031 3.14254 4.42603C1.24469 6.58822 0.640832 11.5124 0.640832 11.5124C0.640832 11.5124 0 17.3015 0 23.0767V28.4891C0 34.2642 0.628509 40.0533 0.628509 40.0533C0.628509 40.0533 1.24469 44.9776 3.13022 47.1397C5.53334 49.9855 8.68821 49.8878 10.0931 50.1947C15.1458 50.7387 31.5487 50.9061 31.5487 50.9061C31.5487 50.9061 44.809 50.8782 53.6328 50.1668C54.8651 49.9994 57.5517 49.9855 59.9548 47.1397C61.8527 44.9776 62.4688 40.0533 62.4688 40.0533C62.4688 40.0533 63.0974 34.2782 63.0974 28.4891V23.0767C63.0974 17.3015 62.4688 11.5124 62.4688 11.5124ZM25.0294 35.0594V14.9859L42.0731 25.0575L25.0294 35.0594Z" fill="#F1C305"/>
</svg>
